<svg width="1024" height="659" viewBox="0 0 1024 659" fill="none" xmlns="http://www.w3.org/2000/svg">
  <rect width="1024" height="659" fill="white"/>
  <g clip-path="url(#clip0_61_2)">
    <path d="M1024 -22H0V659H1024V-22Z" fill="#6600FF"/>
    <g filter="url(#filter0_f_61_2)">
      <path d="M347.022 382.06C571.353 382.06 753.209 200.648 753.209 -23.135C753.209 -246.918 571.353 -428.33 347.022 -428.33C122.691 -428.33 -59.1646 -246.918 -59.1646 -23.135C-59.1646 200.648 122.691 382.06 347.022 382.06Z" fill="#00CC99"/>
      <path d="M177.493 872.38C401.824 872.38 583.68 690.968 583.68 467.185C583.68 243.402 401.824 61.99 177.493 61.99C-46.8374 61.99 -228.693 243.402 -228.693 467.185C-228.693 690.968 -46.8374 872.38 177.493 872.38Z" fill="#6600FF"/>
      <path d="M177.493 872.38C401.824 872.38 583.68 690.968 583.68 467.185C583.68 243.402 401.824 61.99 177.493 61.99C-46.8374 61.99 -228.693 243.402 -228.693 467.185C-228.693 690.968 -46.8374 872.38 177.493 872.38Z" fill="#6600FF"/>
      <path d="M896.569 965.45C1120.9 965.45 1302.76 784.038 1302.76 560.255C1302.76 336.472 1120.9 155.06 896.569 155.06C672.238 155.06 490.382 336.472 490.382 560.255C490.382 784.038 672.238 965.45 896.569 965.45Z" fill="#00CC99"/>
      <path d="M127.431 528.475C351.762 528.475 533.618 347.063 533.618 123.28C533.618 -100.503 351.762 -281.915 127.431 -281.915C-96.8996 -281.915 -278.756 -100.503 -278.756 123.28C-278.756 347.063 -96.8996 528.475 127.431 528.475Z" fill="#00CC99"/>
      <path d="M845.369 654.46C1069.7 654.46 1251.56 473.048 1251.56 249.265C1251.56 25.482 1069.7 -155.93 845.369 -155.93C621.038 -155.93 439.182 25.482 439.182 249.265C439.182 473.048 621.038 654.46 845.369 654.46Z" fill="#6600FF"/>
      <path d="M664.738 897.62C889.068 897.62 1070.92 716.208 1070.92 492.425C1070.92 268.642 889.068 87.23 664.738 87.23C440.407 87.23 258.551 268.642 258.551 492.425C258.551 716.208 440.407 897.62 664.738 897.62Z" fill="#00CC99"/>
    </g>
  </g>
  <defs>
    <filter id="filter0_f_61_2" x="-600.756" y="-750.33" width="2225.51" height="2037.78" filterUnits="userSpaceOnUse" color-interpolation-filters="sRGB">
      <feFlood flood-opacity="0" result="BackgroundImageFix"/>
      <feBlend mode="normal" in="SourceGraphic" in2="BackgroundImageFix" result="shape"/>
      <feGaussianBlur stdDeviation="161" result="effect1_foregroundBlur_61_2"/>
    </filter>
    <clipPath id="clip0_61_2">
      <rect width="1024" height="659" fill="white"/>
    </clipPath>
  </defs>
</svg>
