<svg width="full" height="full" viewBox="0 0 414 737" fill="none" xmlns="http://www.w3.org/2000/svg">
  <path d="M115.693 737L103.393 716.582C90.9932 696.274 66.3931 655.439 63.9931 614.494C61.6931 573.55 81.6931 532.496 93.4931 491.552C105.393 450.607 108.993 409.772 94.4931 368.828C79.9931 327.883 47.3932 286.829 25.6932 245.667C3.99315 204.504 -6.60683 163.45 4.39317 122.506C15.3932 81.5613 47.9932 40.7261 64.3932 20.4176L80.6932 0H413.693V20.4176C413.693 40.7261 413.693 81.5613 413.693 122.506C413.693 163.45 413.693 204.504 413.693 245.667C413.693 286.829 413.693 327.883 413.693 368.828C413.693 409.772 413.693 450.607 413.693 491.552C413.693 532.496 413.693 573.55 413.693 614.494C413.693 655.439 413.693 696.274 413.693 716.582V737H115.693Z" fill="#6600FF"/>
</svg>
