<svg width="full" height="full" viewBox="0 0 1024 214" fill="none" xmlns="http://www.w3.org/2000/svg">
  <path d="M0 188H170.667V179H341.333V193H512V190H682.667V167H853.333V214H1024V0H853.333H682.667H512H341.333H170.667H0V188Z" fill="#6600FF"/>
  <path d="M0 143H170.667V129H341.333V169H512V127H682.667V152H853.333V153H1024V161V0H853.333H682.667H512H341.333H170.667H0V143Z" fill="#0072FF"/>
  <path d="M0 116H170.667V128H341.333V125H512V83H682.667V118H853.333V97H1024V100V0H853.333H682.667H512H341.333H170.667H0V116Z" fill="#00A1FF"/>
  <path d="M0 99H170.667V80H341.333V101H512V93H682.667V63H853.333V96H1024V94V0H853.333H682.667H512H341.333H170.667H0V99Z" fill="#00BFE4"/>
  <path d="M0 63H170.667V21H341.333V19H512V46H682.667V54H853.333V56H1024V42V0H853.333H682.667H512H341.333H170.667H0V63Z" fill="#00CC99"/>
</svg>
