<svg width="full" height="full" viewBox="0 0 1024 227" fill="none" xmlns="http://www.w3.org/2000/svg">
  <path d="M0 23.4336L34.1333 27.1258C68.2667 30.7181 136.533 38.1024 204.8 34.4102C273.067 30.7181 341.333 16.1491 409.6 15.251C477.867 14.4527 546.133 27.4251 614.4 22.9347C682.667 18.4443 750.933 -3.50899 819.2 0.482512C887.467 4.47401 955.733 34.4102 989.867 49.3784L1024 64.3465V227H989.867C955.733 227 887.467 227 819.2 227C750.933 227 682.667 227 614.4 227C546.133 227 477.867 227 409.6 227C341.333 227 273.067 227 204.8 227C136.533 227 68.2667 227 34.1333 227H0V23.4336Z" fill="#6600FF"/>
  <path d="M0 80L34.1333 75.2C68.2667 70.3 136.533 60.7 204.8 62.7C273.067 64.7 341.333 78.3 409.6 89.5C477.867 100.7 546.133 109.3 614.4 108.2C682.667 107 750.933 96 819.2 83.7C887.467 71.3 955.733 57.7 989.867 50.8L1024 44V227H989.867C955.733 227 887.467 227 819.2 227C750.933 227 682.667 227 614.4 227C546.133 227 477.867 227 409.6 227C341.333 227 273.067 227 204.8 227C136.533 227 68.2667 227 34.1333 227H0V80Z" fill="#005DFF"/>
  <path d="M0 129.532L34.1333 132.018C68.2667 134.505 136.533 139.478 204.8 132.814C273.067 126.25 341.333 107.95 409.6 104.469C477.867 100.988 546.133 112.326 614.4 104.369C682.667 96.4127 750.933 69.1614 819.2 62.0999C887.467 54.939 955.733 67.8684 989.867 74.3332L1024 80.7979V227H989.867C955.733 227 887.467 227 819.2 227C750.933 227 682.667 227 614.4 227C546.133 227 477.867 227 409.6 227C341.333 227 273.067 227 204.8 227C136.533 227 68.2667 227 34.1333 227H0V129.532Z" fill="#0084FF"/>
  <path d="M0 159.126L34.1333 150.343C68.2667 141.459 136.533 123.892 204.8 117.504C273.067 111.216 341.333 116.206 409.6 112.912C477.867 109.519 546.133 97.9403 614.4 92.4505C682.667 86.9607 750.933 87.5596 819.2 88.957C887.467 90.2546 955.733 92.2509 989.867 93.249L1024 94.2472V227H989.867C955.733 227 887.467 227 819.2 227C750.933 227 682.667 227 614.4 227C546.133 227 477.867 227 409.6 227C341.333 227 273.067 227 204.8 227C136.533 227 68.2667 227 34.1333 227H0V159.126Z" fill="#00A1FF"/>
  <path d="M0 141.502L34.1333 142.795C68.2667 144.186 136.533 146.771 204.8 149.654C273.067 152.438 341.333 155.42 409.6 148.461C477.867 141.502 546.133 124.601 614.4 119.631C682.667 114.66 750.933 121.619 819.2 132.853C887.467 144.186 955.733 159.695 989.867 167.549L1024 175.304V227H989.867C955.733 227 887.467 227 819.2 227C750.933 227 682.667 227 614.4 227C546.133 227 477.867 227 409.6 227C341.333 227 273.067 227 204.8 227C136.533 227 68.2667 227 34.1333 227H0V141.502Z" fill="#00B7F5"/>
  <path d="M0 139L34.1333 145.5C68.2667 152 136.533 165 204.8 169.7C273.067 174.3 341.333 170.7 409.6 164.2C477.867 157.7 546.133 148.3 614.4 144.3C682.667 140.3 750.933 141.7 819.2 142.5C887.467 143.3 955.733 143.7 989.867 143.8L1024 144V227H989.867C955.733 227 887.467 227 819.2 227C750.933 227 682.667 227 614.4 227C546.133 227 477.867 227 409.6 227C341.333 227 273.067 227 204.8 227C136.533 227 68.2667 227 34.1333 227H0V139Z" fill="#00C5CD"/>
  <path d="M0 173L34.1333 174C68.2667 175 136.533 177 204.8 179.8C273.067 182.7 341.333 186.3 409.6 184.8C477.867 183.3 546.133 176.7 614.4 178.3C682.667 180 750.933 190 819.2 195.3C887.467 200.7 955.733 201.3 989.867 201.7L1024 202V227H989.867C955.733 227 887.467 227 819.2 227C750.933 227 682.667 227 614.4 227C546.133 227 477.867 227 409.6 227C341.333 227 273.067 227 204.8 227C136.533 227 68.2667 227 34.1333 227H0V173Z" fill="#00CC99"/>
</svg>
